<svg width="1728" height="1374" viewBox="0 0 1728 1374" fill="none" xmlns="http://www.w3.org/2000/svg">
<rect y="3.05176e-05" width="1728" height="1152" fill="#19212C"/>
<g opacity="0.15" clip-path="url(#clip0_101_20)">
<path d="M840.359 574.308L734.228 501.664L681.094 580.911L840.359 574.308Z" fill="#1F2837" stroke="#111827" stroke-linejoin="bevel"/>
<path d="M669.719 455.948L614.286 611.86L681.094 580.911L669.719 455.948Z" fill="#2B3444" stroke="#111827" stroke-linejoin="bevel"/>
<path d="M681.094 580.911L751.877 733.326L840.359 574.308L681.094 580.911Z" fill="#141C2B" stroke="#111827" stroke-linejoin="bevel"/>
<path d="M868.036 413.699L669.719 455.948L734.229 501.664L868.036 413.699Z" fill="#111827" stroke="#111827" stroke-linejoin="bevel"/>
<path d="M734.229 501.664L669.719 455.948L681.094 580.911L734.229 501.664Z" fill="#1C2433" stroke="#111827" stroke-linejoin="bevel"/>
<path d="M614.285 611.86L751.877 733.327L681.094 580.911L614.285 611.86Z" fill="#232C3B" stroke="#111827" stroke-linejoin="bevel"/>
<path d="M840.359 574.308L868.036 413.699L734.229 501.664L840.359 574.308Z" fill="#27303F" stroke="#111827" stroke-linejoin="bevel"/>
<path d="M840.359 574.308L896.59 421.017L868.036 413.699L840.359 574.308Z" fill="#333D4D" stroke="#111827" stroke-linejoin="bevel"/>
<path d="M669.719 455.948L532.635 489.918L614.285 611.86L669.719 455.948Z" fill="#141C2B" stroke="#111827" stroke-linejoin="bevel"/>
<path d="M501.198 791.57L570.775 748.662L323.594 583.793L501.198 791.57Z" fill="#2F3848" stroke="#111827" stroke-linejoin="bevel"/>
<path d="M614.285 611.86L570.775 748.662L751.877 733.327L614.285 611.86Z" fill="#374151" stroke="#111827" stroke-linejoin="bevel"/>
<path d="M764.175 1174.12L949.272 854.971L751.877 733.327L764.175 1174.12Z" fill="#2B3444" stroke="#111827" stroke-linejoin="bevel"/>
<path d="M751.877 733.327L949.272 854.971L840.36 574.308L751.877 733.327Z" fill="#232C3B" stroke="#111827" stroke-linejoin="bevel"/>
<path d="M840.359 574.308L1048.28 401.948L896.59 421.017L840.359 574.308Z" fill="#2F3848" stroke="#111827" stroke-linejoin="bevel"/>
<path d="M1173.01 819.509L1048.28 401.948L840.359 574.308L1173.01 819.509Z" fill="#27303F" stroke="#111827" stroke-linejoin="bevel"/>
<path d="M896.59 421.017L1011.99 352.309L868.036 413.699L896.59 421.017Z" fill="#27303F" stroke="#111827" stroke-linejoin="bevel"/>
<path d="M323.594 583.793L570.776 748.662L614.285 611.86L323.594 583.793Z" fill="#111827" stroke="#111827" stroke-linejoin="bevel"/>
<path d="M570.775 748.662L498.101 1060.73L751.877 733.327L570.775 748.662Z" fill="#2B3444" stroke="#111827" stroke-linejoin="bevel"/>
<path d="M1048.28 401.948L1012 352.309L896.59 421.017L1048.28 401.948Z" fill="#232C3B" stroke="#111827" stroke-linejoin="bevel"/>
<path d="M868.036 413.699L660.822 187.24L669.718 455.948L868.036 413.699Z" fill="#374151" stroke="#111827" stroke-linejoin="bevel"/>
<path d="M669.718 455.948L500.786 240.939L532.634 489.918L669.718 455.948Z" fill="#141C2B" stroke="#111827" stroke-linejoin="bevel"/>
<path d="M1010.63 184.3L660.822 187.24L868.036 413.699L1010.63 184.3Z" fill="#2F3848" stroke="#111827" stroke-linejoin="bevel"/>
<path d="M1048.28 401.948L1096.14 323.052L1011.99 352.309L1048.28 401.948Z" fill="#141C2B" stroke="#111827" stroke-linejoin="bevel"/>
<path d="M1011.99 352.309L1010.64 184.3L868.036 413.699L1011.99 352.309Z" fill="#18202F" stroke="#111827" stroke-linejoin="bevel"/>
<path d="M1263.58 389.915L1096.14 323.052L1048.28 401.948L1263.58 389.915Z" fill="#2F3848" stroke="#111827" stroke-linejoin="bevel"/>
<path d="M660.822 187.24L500.786 240.939L669.718 455.948L660.822 187.24Z" fill="#232C3B" stroke="#111827" stroke-linejoin="bevel"/>
<path d="M532.634 489.918L323.594 583.793L614.285 611.86L532.634 489.918Z" fill="#141C2B" stroke="#111827" stroke-linejoin="bevel"/>
<path d="M242.172 526.515L323.594 583.793L532.635 489.918L242.172 526.515Z" fill="#18202F" stroke="#111827" stroke-linejoin="bevel"/>
<path d="M345.285 749.028L360.376 764.01L501.199 791.57L345.285 749.028Z" fill="#232C3B" stroke="#111827" stroke-linejoin="bevel"/>
<path d="M323.594 583.793L345.284 749.028L501.198 791.57L323.594 583.793Z" fill="#141C2B" stroke="#111827" stroke-linejoin="bevel"/>
<path d="M1096.14 323.051L1010.64 184.3L1011.99 352.309L1096.14 323.051Z" fill="#141C2B" stroke="#111827" stroke-linejoin="bevel"/>
<path d="M949.272 854.971L1173.01 819.509L840.359 574.308L949.272 854.971Z" fill="#2B3444" stroke="#111827" stroke-linejoin="bevel"/>
<path d="M949.271 854.971L1165.22 840.563L1173.01 819.509L949.271 854.971Z" fill="#1C2433" stroke="#111827" stroke-linejoin="bevel"/>
<path d="M365.932 73.9518L430.46 217.852L485.963 -8.88758L365.932 73.9518Z" fill="#111827" stroke="#111827" stroke-linejoin="bevel"/>
<path d="M500.786 240.939L430.46 217.852L532.635 489.918L500.786 240.939Z" fill="#2F3848" stroke="#111827" stroke-linejoin="bevel"/>
<path d="M430.46 217.852L242.172 526.515L532.635 489.918L430.46 217.852Z" fill="#18202F" stroke="#111827" stroke-linejoin="bevel"/>
<path d="M323.594 583.793L250.863 706.95L345.284 749.028L323.594 583.793Z" fill="#18202F" stroke="#111827" stroke-linejoin="bevel"/>
<path d="M242.172 526.515L250.863 706.95L323.594 583.793L242.172 526.515Z" fill="#111827" stroke="#111827" stroke-linejoin="bevel"/>
<path d="M345.285 749.028L273.367 794.026L360.376 764.01L345.285 749.028Z" fill="#232C3B" stroke="#111827" stroke-linejoin="bevel"/>
<path d="M250.863 706.95L273.367 794.026L345.284 749.028L250.863 706.95Z" fill="#1C2433" stroke="#111827" stroke-linejoin="bevel"/>
<path d="M349.226 1004.47L498.101 1060.73L501.198 791.57L349.226 1004.47Z" fill="#2B3444" stroke="#111827" stroke-linejoin="bevel"/>
<path d="M881.958 1194.05L1041.9 1039.67L949.272 854.971L881.958 1194.05Z" fill="#1C2433" stroke="#111827" stroke-linejoin="bevel"/>
<path d="M1299.02 426.982L1263.58 389.915L1315.47 504.334L1299.02 426.982Z" fill="#111827" stroke="#111827" stroke-linejoin="bevel"/>
<path d="M1096.14 323.052L1150.5 163.229L1010.64 184.3L1096.14 323.052Z" fill="#232C3B" stroke="#111827" stroke-linejoin="bevel"/>
<path d="M498.101 1060.73L570.776 748.662L501.199 791.57L498.101 1060.73Z" fill="#27303F" stroke="#111827" stroke-linejoin="bevel"/>
<path d="M949.272 854.971L1041.9 1039.67L1165.22 840.563L949.272 854.971Z" fill="#1C2433" stroke="#111827" stroke-linejoin="bevel"/>
<path d="M349.227 1004.47L501.198 791.57L360.376 764.01L349.227 1004.47Z" fill="#1C2433" stroke="#111827" stroke-linejoin="bevel"/>
<path d="M1315.47 504.334L1263.58 389.915L1048.28 401.948L1315.47 504.334Z" fill="#111827" stroke="#111827" stroke-linejoin="bevel"/>
<path d="M1173.01 819.509L1315.47 504.334L1048.28 401.948L1173.01 819.509Z" fill="#141C2B" stroke="#111827" stroke-linejoin="bevel"/>
<path d="M1420.78 703.605L1315.47 504.334L1173.01 819.509L1420.78 703.605Z" fill="#27303F" stroke="#111827" stroke-linejoin="bevel"/>
<path d="M1265.8 -47.1761L1150.5 163.229L1461.31 43.0792L1265.8 -47.1761Z" fill="#333D4D" stroke="#111827" stroke-linejoin="bevel"/>
<path d="M1263.58 389.915L1150.5 163.229L1096.14 323.052L1263.58 389.915Z" fill="#1F2837" stroke="#111827" stroke-linejoin="bevel"/>
<path d="M485.963 -8.8876L500.786 240.939L660.822 187.24L485.963 -8.8876Z" fill="#232C3B" stroke="#111827" stroke-linejoin="bevel"/>
<path d="M273.367 794.026L349.226 1004.47L360.376 764.01L273.367 794.026Z" fill="#1C2433" stroke="#111827" stroke-linejoin="bevel"/>
<path d="M450.651 1121.06L764.175 1174.12L498.101 1060.73L450.651 1121.06Z" fill="#374151" stroke="#111827" stroke-linejoin="bevel"/>
<path d="M498.101 1060.73L764.175 1174.12L751.877 733.327L498.101 1060.73Z" fill="#2F3848" stroke="#111827" stroke-linejoin="bevel"/>
<path d="M1256.75 987.789L1267.83 907.639L1165.22 840.563L1256.75 987.789Z" fill="#27303F" stroke="#111827" stroke-linejoin="bevel"/>
<path d="M1165.22 840.563L1267.83 907.639L1173.01 819.509L1165.22 840.563Z" fill="#1C2433" stroke="#111827" stroke-linejoin="bevel"/>
<path d="M349.227 1004.47L450.652 1121.06L498.101 1060.73L349.227 1004.47Z" fill="#374151" stroke="#111827" stroke-linejoin="bevel"/>
<path d="M764.175 1174.12L881.958 1194.05L949.272 854.971L764.175 1174.12Z" fill="#232C3B" stroke="#111827" stroke-linejoin="bevel"/>
<path d="M1041.9 1039.67L1256.75 987.788L1165.22 840.563L1041.9 1039.67Z" fill="#2B3444" stroke="#111827" stroke-linejoin="bevel"/>
<path d="M485.963 -8.8876L430.461 217.852L500.786 240.939L485.963 -8.8876Z" fill="#232C3B" stroke="#111827" stroke-linejoin="bevel"/>
<path d="M430.46 217.852L111.268 387.538L242.172 526.515L430.46 217.852Z" fill="#374151" stroke="#111827" stroke-linejoin="bevel"/>
<path d="M485.963 -8.88757L660.822 187.24L606.355 -136.407L485.963 -8.88757Z" fill="#18202F" stroke="#111827" stroke-linejoin="bevel"/>
<path d="M1163.2 1097.48L1256.75 987.789L1041.9 1039.67L1163.2 1097.48Z" fill="#374151" stroke="#111827" stroke-linejoin="bevel"/>
<path d="M952.113 -97.7776L660.822 187.24L1010.64 184.3L952.113 -97.7776Z" fill="#27303F" stroke="#111827" stroke-linejoin="bevel"/>
<path d="M881.957 1194.05L939.641 1203.81L1041.9 1039.67L881.957 1194.05Z" fill="#18202F" stroke="#111827" stroke-linejoin="bevel"/>
<path d="M939.642 1203.81L1163.2 1097.48L1041.9 1039.67L939.642 1203.81Z" fill="#2B3444" stroke="#111827" stroke-linejoin="bevel"/>
<path d="M1407.37 916.341L1420.78 703.605L1267.83 907.639L1407.37 916.341Z" fill="#232C3B" stroke="#111827" stroke-linejoin="bevel"/>
<path d="M1267.83 907.639L1420.78 703.605L1173.01 819.509L1267.83 907.639Z" fill="#333D4D" stroke="#111827" stroke-linejoin="bevel"/>
<path d="M1315.47 504.334L1431.89 478.053L1299.02 426.982L1315.47 504.334Z" fill="#2F3848" stroke="#111827" stroke-linejoin="bevel"/>
<path d="M248.394 1086.83L434.786 1169.33L450.652 1121.06L248.394 1086.83Z" fill="#111827" stroke="#111827" stroke-linejoin="bevel"/>
<path d="M450.652 1121.06L434.786 1169.33L764.175 1174.12L450.652 1121.06Z" fill="#333D4D" stroke="#111827" stroke-linejoin="bevel"/>
<path d="M764.175 1174.12L434.786 1169.33L881.957 1194.05L764.175 1174.12Z" fill="#111827" stroke="#111827" stroke-linejoin="bevel"/>
<path d="M881.957 1194.05L434.786 1169.33L939.641 1203.81L881.957 1194.05Z" fill="#232C3B" stroke="#111827" stroke-linejoin="bevel"/>
<path d="M110.437 172.393L111.268 387.538L430.461 217.852L110.437 172.393Z" fill="#141C2B" stroke="#111827" stroke-linejoin="bevel"/>
<path d="M242.172 526.515L-33.6691 513.389L250.863 706.949L242.172 526.515Z" fill="#232C3B" stroke="#111827" stroke-linejoin="bevel"/>
<path d="M205.191 1079.52L349.226 1004.47L273.367 794.026L205.191 1079.52Z" fill="#232C3B" stroke="#111827" stroke-linejoin="bevel"/>
<path d="M205.191 1079.52L248.394 1086.83L349.226 1004.47L205.191 1079.52Z" fill="#2B3444" stroke="#111827" stroke-linejoin="bevel"/>
<path d="M138.151 13.033L291.645 87.4787L181.192 -98.9921L138.151 13.033Z" fill="#1C2433" stroke="#111827" stroke-linejoin="bevel"/>
<path d="M365.933 73.9518L291.645 87.4787L430.46 217.852L365.933 73.9518Z" fill="#141C2B" stroke="#111827" stroke-linejoin="bevel"/>
<path d="M1420.78 703.605L1431.89 478.053L1315.47 504.335L1420.78 703.605Z" fill="#27303F" stroke="#111827" stroke-linejoin="bevel"/>
<path d="M1299.02 426.982L1590.61 330.921L1263.58 389.915L1299.02 426.982Z" fill="#374151" stroke="#111827" stroke-linejoin="bevel"/>
<path d="M1059.34 -118.158L1010.64 184.3L1071.89 -116.034L1059.34 -118.158Z" fill="#2B3444" stroke="#111827" stroke-linejoin="bevel"/>
<path d="M1059.34 -118.158L952.113 -97.7776L1010.64 184.3L1059.34 -118.158Z" fill="#333D4D" stroke="#111827" stroke-linejoin="bevel"/>
<path d="M205.191 1079.52L273.367 794.026L-10.4848 1111.37L205.191 1079.52Z" fill="#374151" stroke="#111827" stroke-linejoin="bevel"/>
<path d="M349.227 1004.47L248.394 1086.83L450.652 1121.06L349.227 1004.47Z" fill="#374151" stroke="#111827" stroke-linejoin="bevel"/>
<path d="M952.113 -97.7776L606.355 -136.407L660.822 187.24L952.113 -97.7776Z" fill="#141C2B" stroke="#111827" stroke-linejoin="bevel"/>
<path d="M485.963 -8.88761L181.192 -98.9921L365.933 73.9518L485.963 -8.88761Z" fill="#374151" stroke="#111827" stroke-linejoin="bevel"/>
<path d="M1388.4 997.641L1407.37 916.341L1267.83 907.639L1388.4 997.641Z" fill="#141C2B" stroke="#111827" stroke-linejoin="bevel"/>
<path d="M1420.72 921.086L1407.37 916.341L1388.4 997.641L1420.72 921.086Z" fill="#2B3444" stroke="#111827" stroke-linejoin="bevel"/>
<path d="M1388.4 997.641L1267.83 907.639L1256.75 987.789L1388.4 997.641Z" fill="#2F3848" stroke="#111827" stroke-linejoin="bevel"/>
<path d="M1407.37 916.341L1420.72 921.085L1420.78 703.605L1407.37 916.341Z" fill="#141C2B" stroke="#111827" stroke-linejoin="bevel"/>
<path d="M1420.78 703.605L1531.06 624.088L1431.89 478.053L1420.78 703.605Z" fill="#27303F" stroke="#111827" stroke-linejoin="bevel"/>
<path d="M-10.4846 1111.37L273.367 794.026L-164.425 948.612L-10.4846 1111.37Z" fill="#18202F" stroke="#111827" stroke-linejoin="bevel"/>
<path d="M248.394 1086.83L-10.4846 1111.37L434.786 1169.33L248.394 1086.83Z" fill="#1C2433" stroke="#111827" stroke-linejoin="bevel"/>
<path d="M1163.2 1097.48L1388.4 997.641L1256.74 987.789L1163.2 1097.48Z" fill="#27303F" stroke="#111827" stroke-linejoin="bevel"/>
<path d="M1216.72 1250.7L1388.4 997.641L1163.2 1097.48L1216.72 1250.7Z" fill="#141C2B" stroke="#111827" stroke-linejoin="bevel"/>
<path d="M1071.89 -116.034L1010.64 184.3L1150.5 163.229L1071.89 -116.034Z" fill="#1F2837" stroke="#111827" stroke-linejoin="bevel"/>
<path d="M1265.8 -47.176L1071.89 -116.034L1150.5 163.229L1265.8 -47.176Z" fill="#374151" stroke="#111827" stroke-linejoin="bevel"/>
<path d="M291.645 87.4786L110.437 172.393L430.46 217.852L291.645 87.4786Z" fill="#374151" stroke="#111827" stroke-linejoin="bevel"/>
<path d="M138.151 13.033L110.437 172.393L291.645 87.4787L138.151 13.033Z" fill="#2B3444" stroke="#111827" stroke-linejoin="bevel"/>
<path d="M1669.26 668.604L1531.06 624.088L1420.78 703.605L1669.26 668.604Z" fill="#111827" stroke="#111827" stroke-linejoin="bevel"/>
<path d="M1431.89 478.053L1590.61 330.921L1299.02 426.982L1431.89 478.053Z" fill="#141C2B" stroke="#111827" stroke-linejoin="bevel"/>
<path d="M1531.06 624.088L1537.6 454.929L1431.89 478.053L1531.06 624.088Z" fill="#333D4D" stroke="#111827" stroke-linejoin="bevel"/>
<path d="M-73.7249 458.141L-33.6691 513.389L111.268 387.538L-73.7249 458.141Z" fill="#374151" stroke="#111827" stroke-linejoin="bevel"/>
<path d="M111.267 387.538L-33.6694 513.389L242.172 526.515L111.267 387.538Z" fill="#18202F" stroke="#111827" stroke-linejoin="bevel"/>
<path d="M1461.31 43.0793L1150.5 163.229L1263.58 389.915L1461.31 43.0793Z" fill="#111827" stroke="#111827" stroke-linejoin="bevel"/>
<path d="M606.355 -136.407L541.627 -205.773L485.963 -8.88754L606.355 -136.407Z" fill="#2B3444" stroke="#111827" stroke-linejoin="bevel"/>
<path d="M434.786 1169.33L1216.72 1250.7L939.642 1203.81L434.786 1169.33Z" fill="#2F3848" stroke="#111827" stroke-linejoin="bevel"/>
<path d="M939.642 1203.81L1216.72 1250.7L1163.2 1097.48L939.642 1203.81Z" fill="#2F3848" stroke="#111827" stroke-linejoin="bevel"/>
<path d="M1388.4 997.641L1497.33 970.093L1420.72 921.085L1388.4 997.641Z" fill="#27303F" stroke="#111827" stroke-linejoin="bevel"/>
<path d="M1420.72 921.085L1497.33 970.093L1420.78 703.605L1420.72 921.085Z" fill="#2F3848" stroke="#111827" stroke-linejoin="bevel"/>
<path d="M1616.52 1143.13L1497.33 970.093L1388.4 997.641L1616.52 1143.13Z" fill="#18202F" stroke="#111827" stroke-linejoin="bevel"/>
<path d="M181.192 -98.9921L291.645 87.4787L365.933 73.9518L181.192 -98.9921Z" fill="#18202F" stroke="#111827" stroke-linejoin="bevel"/>
<path d="M-155.381 368.511L-73.7244 458.141L111.268 387.538L-155.381 368.511Z" fill="#1C2433" stroke="#111827" stroke-linejoin="bevel"/>
<path d="M-155.381 368.511L111.268 387.538L110.438 172.393L-155.381 368.511Z" fill="#141C2B" stroke="#111827" stroke-linejoin="bevel"/>
<path d="M-173.635 856.329L273.367 794.026L250.863 706.95L-173.635 856.329Z" fill="#111827" stroke="#111827" stroke-linejoin="bevel"/>
<path d="M1461.31 43.0794L1305.28 -76.5362L1265.8 -47.176L1461.31 43.0794Z" fill="#2B3444" stroke="#111827" stroke-linejoin="bevel"/>
<path d="M138.151 13.033L46.2824 114.309L110.437 172.393L138.151 13.033Z" fill="#2B3444" stroke="#111827" stroke-linejoin="bevel"/>
<path d="M1830.91 433.729L1590.61 330.921L1537.59 454.929L1830.91 433.729Z" fill="#2F3848" stroke="#111827" stroke-linejoin="bevel"/>
<path d="M1537.59 454.929L1590.61 330.921L1431.89 478.053L1537.59 454.929Z" fill="#232C3B" stroke="#111827" stroke-linejoin="bevel"/>
<path d="M1681.25 627.133L1537.59 454.929L1531.06 624.088L1681.25 627.133Z" fill="#141C2B" stroke="#111827" stroke-linejoin="bevel"/>
<path d="M1590.61 330.921L1461.31 43.0793L1263.58 389.915L1590.61 330.921Z" fill="#2F3848" stroke="#111827" stroke-linejoin="bevel"/>
<path d="M138.151 13.033L-51.3789 -69.9968L46.2824 114.309L138.151 13.033Z" fill="#1C2433" stroke="#111827" stroke-linejoin="bevel"/>
<path d="M1653.76 940.64L1669.26 668.603L1420.78 703.605L1653.76 940.64Z" fill="#1C2433" stroke="#111827" stroke-linejoin="bevel"/>
<path d="M1669.26 668.603L1681.25 627.133L1531.06 624.087L1669.26 668.603Z" fill="#141C2B" stroke="#111827" stroke-linejoin="bevel"/>
<path d="M-173.635 856.329L250.863 706.95L-33.6689 513.389L-173.635 856.329Z" fill="#27303F" stroke="#111827" stroke-linejoin="bevel"/>
<path d="M205.191 1079.52L-10.4846 1111.37L248.394 1086.83L205.191 1079.52Z" fill="#18202F" stroke="#111827" stroke-linejoin="bevel"/>
<path d="M46.2831 114.309L-155.381 368.511L110.438 172.393L46.2831 114.309Z" fill="#333D4D" stroke="#111827" stroke-linejoin="bevel"/>
<path d="M181.191 -98.9922L-51.3791 -69.9968L138.151 13.033L181.191 -98.9922Z" fill="#141C2B" stroke="#111827" stroke-linejoin="bevel"/>
<path d="M1461.31 43.0794L1515.72 -17.3093L1305.28 -76.5362L1461.31 43.0794Z" fill="#2F3848" stroke="#111827" stroke-linejoin="bevel"/>
<path d="M1632.09 141.577L1515.72 -17.3093L1461.31 43.0793L1632.09 141.577Z" fill="#2B3444" stroke="#111827" stroke-linejoin="bevel"/>
<path d="M1632.09 141.577L1461.31 43.0793L1590.61 330.921L1632.09 141.577Z" fill="#27303F" stroke="#111827" stroke-linejoin="bevel"/>
<path d="M1616.52 1143.13L1653.76 940.64L1497.33 970.093L1616.52 1143.13Z" fill="#111827" stroke="#111827" stroke-linejoin="bevel"/>
<path d="M1497.33 970.093L1653.76 940.64L1420.78 703.605L1497.33 970.093Z" fill="#18202F" stroke="#111827" stroke-linejoin="bevel"/>
<path d="M1669.26 668.603L1809.62 794.266L1681.25 627.133L1669.26 668.603Z" fill="#1C2433" stroke="#111827" stroke-linejoin="bevel"/>
<path d="M1830.91 433.729L1632.09 141.577L1590.61 330.921L1830.91 433.729Z" fill="#141C2B" stroke="#111827" stroke-linejoin="bevel"/>
<path d="M434.786 1169.33L1433.7 1287.42L1216.72 1250.7L434.786 1169.33Z" fill="#1F2837" stroke="#111827" stroke-linejoin="bevel"/>
<path d="M1216.72 1250.7L1433.7 1287.42L1388.4 997.641L1216.72 1250.7Z" fill="#2B3444" stroke="#111827" stroke-linejoin="bevel"/>
<path d="M-173.635 856.329L-164.425 948.612L273.367 794.026L-173.635 856.329Z" fill="#141C2B" stroke="#111827" stroke-linejoin="bevel"/>
<path d="M1433.7 1287.42L1616.52 1143.13L1388.4 997.641L1433.7 1287.42Z" fill="#2F3848" stroke="#111827" stroke-linejoin="bevel"/>
<path d="M1645.11 -19.0252L1637.15 -20.3731L1632.09 141.577L1645.11 -19.0252Z" fill="#2F3848" stroke="#111827" stroke-linejoin="bevel"/>
<path d="M1632.09 141.577L1637.15 -20.3731L1515.72 -17.3093L1632.09 141.577Z" fill="#2F3848" stroke="#111827" stroke-linejoin="bevel"/>
<path d="M1515.72 -17.3093L1637.15 -20.3731L1305.28 -76.5362L1515.72 -17.3093Z" fill="#111827" stroke="#111827" stroke-linejoin="bevel"/>
<path d="M-164.425 948.612L-211.633 1008.98L-10.4847 1111.37L-164.425 948.612Z" fill="#27303F" stroke="#111827" stroke-linejoin="bevel"/>
<path d="M1828.3 11.9768L1645.11 -19.0252L1632.09 141.577L1828.3 11.9768Z" fill="#141C2B" stroke="#111827" stroke-linejoin="bevel"/>
<path d="M-224.979 134.271L-155.382 368.511L46.2826 114.309L-224.979 134.271Z" fill="#2B3444" stroke="#111827" stroke-linejoin="bevel"/>
<path d="M-211.634 1008.98L-219.116 1007.71L-10.4848 1111.37L-211.634 1008.98Z" fill="#333D4D" stroke="#111827" stroke-linejoin="bevel"/>
<path d="M1881.3 928.192L1809.62 794.266L1653.76 940.64L1881.3 928.192Z" fill="#111827" stroke="#111827" stroke-linejoin="bevel"/>
<path d="M1653.76 940.64L1809.62 794.266L1669.26 668.603L1653.76 940.64Z" fill="#1C2433" stroke="#111827" stroke-linejoin="bevel"/>
<path d="M1681.25 627.133L1830.91 433.728L1537.59 454.929L1681.25 627.133Z" fill="#1F2837" stroke="#111827" stroke-linejoin="bevel"/>
<path d="M1433.7 1287.42L1622.91 1221.26L1616.52 1143.13L1433.7 1287.42Z" fill="#2B3444" stroke="#111827" stroke-linejoin="bevel"/>
<path d="M1616.52 1143.13L1881.3 928.191L1653.76 940.639L1616.52 1143.13Z" fill="#27303F" stroke="#111827" stroke-linejoin="bevel"/>
<path d="M1809.62 794.266L1830.91 433.729L1681.25 627.133L1809.62 794.266Z" fill="#18202F" stroke="#111827" stroke-linejoin="bevel"/>
<path d="M-144.606 -47.2471L-224.979 134.271L46.2825 114.309L-144.606 -47.2471Z" fill="#1F2837" stroke="#111827" stroke-linejoin="bevel"/>
<path d="M-51.3789 -69.9967L-144.606 -47.2471L46.2824 114.309L-51.3789 -69.9967Z" fill="#111827" stroke="#111827" stroke-linejoin="bevel"/>
<path d="M1927.85 1382.24L1648.03 1323.69L1433.7 1287.42L1927.85 1382.24Z" fill="#2F3848" stroke="#111827" stroke-linejoin="bevel"/>
<path d="M1433.7 1287.42L1648.03 1323.69L1622.91 1221.26L1433.7 1287.42Z" fill="#374151" stroke="#111827" stroke-linejoin="bevel"/>
<path d="M1954.63 1256.27L1616.52 1143.13L1622.91 1221.26L1954.63 1256.27Z" fill="#18202F" stroke="#111827" stroke-linejoin="bevel"/>
<path d="M1946.99 143.915L1828.3 11.9768L1632.09 141.577L1946.99 143.915Z" fill="#27303F" stroke="#111827" stroke-linejoin="bevel"/>
<path d="M1645.11 -19.0253L1828.3 11.9767L411.29 -301.155L1645.11 -19.0253Z" fill="#374151" stroke="#111827" stroke-linejoin="bevel"/>
<path d="M1946.99 143.915L1632.09 141.577L1830.91 433.729L1946.99 143.915Z" fill="#111827" stroke="#111827" stroke-linejoin="bevel"/>
<path d="M-219.116 1007.71L-387.342 979.241L-10.4848 1111.37L-219.116 1007.71Z" fill="#27303F" stroke="#111827" stroke-linejoin="bevel"/>
<path d="M1927.85 1382.24L1811.91 1351.43L1648.03 1323.69L1927.85 1382.24Z" fill="#2B3444" stroke="#111827" stroke-linejoin="bevel"/>
<path d="M1648.03 1323.69L1811.91 1351.43L1622.91 1221.26L1648.03 1323.69Z" fill="#111827" stroke="#111827" stroke-linejoin="bevel"/>
<path d="M1982.65 1058.44L1881.3 928.191L1616.52 1143.13L1982.65 1058.44Z" fill="#232C3B" stroke="#111827" stroke-linejoin="bevel"/>
<path d="M1954.63 1256.27L1982.65 1058.44L1616.52 1143.13L1954.63 1256.27Z" fill="#374151" stroke="#111827" stroke-linejoin="bevel"/>
<path d="M1828.3 11.9767L1996.53 40.4463L411.29 -301.155L1828.3 11.9767Z" fill="#111827" stroke="#111827" stroke-linejoin="bevel"/>
<path d="M1811.91 1351.43L1954.63 1256.27L1622.91 1221.26L1811.91 1351.43Z" fill="#333D4D" stroke="#111827" stroke-linejoin="bevel"/>
<path d="M1927.85 1382.24L1433.7 1287.42L434.786 1169.33L1927.85 1382.24Z" fill="#232C3B" stroke="#111827" stroke-linejoin="bevel"/>
<path d="M-10.4847 1111.37L1927.85 1382.24L434.786 1169.33L-10.4847 1111.37Z" fill="#1F2837" stroke="#111827" stroke-linejoin="bevel"/>
<path d="M1996.53 40.4464L2150.52 66.5061L411.29 -301.155L1996.53 40.4464Z" fill="#2F3848" stroke="#111827" stroke-linejoin="bevel"/>
</g>
<defs>
<clipPath id="clip0_101_20">
<rect width="2382.29" height="1392.2" fill="white" transform="translate(-154.452 -396.898) rotate(9.60538)"/>
</clipPath>
</defs>
</svg>
