<svg width="56" height="39" viewBox="0 0 56 39" fill="none" xmlns="http://www.w3.org/2000/svg">
<path d="M3.84534 1.55979C3.1924 1.04993 2.13377 1.04993 1.48083 1.55979C0.827886 2.06965 0.827886 2.89629 1.48083 3.40615L3.84534 1.55979ZM1.48083 3.40615L27.5437 23.7577L29.9082 21.9113L3.84534 1.55979L1.48083 3.40615Z" fill="#6B7280"/>
<path d="M27.9375 22.3516L54.0003 2.00001" stroke="#6B7280" stroke-width="3" stroke-linecap="round"/>
<path d="M3.84534 16.0224C3.1924 15.5126 2.13377 15.5126 1.48083 16.0224C0.827886 16.5323 0.827886 17.3589 1.48083 17.8688L3.84534 16.0224ZM1.48083 17.8688L27.5437 38.2204L29.9082 36.374L3.84534 16.0224L1.48083 17.8688Z" fill="#6B7280"/>
<path d="M27.9375 36.8141L54.0003 16.4626" stroke="#6B7280" stroke-width="3" stroke-linecap="round"/>
</svg>
