<?xml version="1.0" standalone="no"?>
<!DOCTYPE svg PUBLIC "-//W3C//DTD SVG 20010904//EN"
 "http://www.w3.org/TR/2001/REC-SVG-20010904/DTD/svg10.dtd">
<svg version="1.0" xmlns="http://www.w3.org/2000/svg"
 width="700.000000pt" height="700.000000pt" viewBox="0 0 700.000000 700.000000"
 preserveAspectRatio="xMidYMid meet">
<metadata>
Created by potrace 1.14, written by Peter Selinger 2001-2017
</metadata>
<g transform="translate(0.000000,700.000000) scale(0.100000,-0.100000)"
fill="#000000" stroke="none">
<path d="M3278 6995 c-1 -1 -42 -5 -89 -9 -47 -4 -95 -8 -105 -10 -10 -2 -41
-7 -69 -10 -171 -22 -432 -82 -590 -134 -844 -281 -1526 -836 -1965 -1597 -47
-83 -170 -327 -170 -340 0 -3 -9 -24 -20 -48 -30 -65 -95 -243 -120 -332 -12
-44 -26 -91 -31 -105 -7 -22 -22 -83 -35 -145 -47 -235 -54 -277 -71 -465 -15
-165 -8 -592 12 -711 2 -13 6 -46 9 -74 9 -78 22 -152 51 -285 21 -96 91 -339
114 -395 5 -11 25 -65 46 -120 64 -170 213 -461 314 -615 213 -323 469 -603
771 -845 92 -74 370 -265 386 -265 4 0 15 -6 23 -14 29 -26 334 -175 472 -230
242 -96 545 -177 798 -212 25 -3 57 -8 71 -10 163 -25 682 -25 841 1 13 2 47
7 74 10 71 10 87 13 115 18 14 3 43 8 65 12 22 4 76 16 120 27 44 10 87 21 96
23 222 51 594 202 823 334 49 28 93 51 97 51 5 0 9 5 9 10 0 6 5 10 10 10 15
0 220 141 330 227 152 118 324 280 450 422 36 41 70 79 76 85 6 6 48 61 94
121 150 197 277 405 383 628 26 53 47 99 47 102 0 2 11 28 24 57 57 127 151
421 182 573 17 81 54 301 59 350 4 33 9 71 11 85 9 46 11 524 4 605 -12 126
-20 202 -25 226 -3 13 -7 41 -10 64 -18 129 -81 383 -136 547 -230 685 -679
1298 -1256 1713 -65 47 -122 89 -128 93 -79 62 -414 240 -590 314 -239 100
-572 194 -785 223 -19 3 -46 7 -60 10 -13 2 -52 7 -86 11 -33 3 -74 8 -90 10
-33 5 -540 14 -546 9z"/>
</g>
</svg>
